<?xml version="1.0" encoding="UTF-8"?>
<svg id="Layer_2" data-name="Layer 2" xmlns="http://www.w3.org/2000/svg" viewBox="0 0 129.83 147">
  <defs>
    <style>
      .cls-1 {
        fill: #231f20;
        font-family: MyriadPro-Bold, 'Myriad Pro';
        font-size: 30.4px;
        font-weight: 700;
      }

      .cls-2 {
        letter-spacing: 0em;
      }

      .cls-3 {
        letter-spacing: -.02em;
      }

      .cls-4 {
        fill: #010101;
        fill-rule: evenodd;
      }

      .cls-5 {
        letter-spacing: 0em;
      }
    </style>
  </defs>
  <g id="Layer_1-2" data-name="Layer 1">
    <path class="cls-4" d="M57.37,12.23c0-4.05,3.29-7.34,7.34-7.34s7.34,3.29,7.34,7.34-3.29,7.34-7.34,7.34-7.34-3.29-7.34-7.34ZM76.93,12.23c0,5.92-4.2,10.85-9.78,11.98v5.13h28.53c12.78,0,23.19,10.14,23.63,22.82h.83c4.95,0,8.97,4.01,8.97,8.97v17.93c0,4.95-4.01,8.97-8.97,8.97h-.94c-1.22,11.91-11.28,21.19-23.51,21.19h-61.95c-12.23,0-22.29-9.28-23.51-21.19h-.94c-4.95,0-8.97-4.01-8.97-8.97v-17.93c0-4.95,4.01-8.97,8.97-8.97h.83c.43-12.68,10.85-22.82,23.63-22.82h28.53v-5.13c-5.58-1.13-9.78-6.07-9.78-11.98,0-6.75,5.48-12.23,12.23-12.23s12.23,5.48,12.23,12.23h0ZM33.73,34.24h61.95c10.35,0,18.75,8.39,18.75,18.75v32.61c0,10.35-8.39,18.75-18.75,18.75h-61.95c-10.35,0-18.75-8.39-18.75-18.75v-32.61c0-10.35,8.39-18.75,18.75-18.75ZM9.28,57.06h.82v26.08h-.82c-2.25,0-4.08-1.83-4.08-4.08v-17.93c0-2.25,1.83-4.08,4.08-4.08ZM120.14,83.14h-.82v-26.08h.82c2.25,0,4.08,1.83,4.08,4.08v17.93c0,2.25-1.83,4.08-4.08,4.08ZM36.99,59.5c0-3.6,2.92-6.52,6.52-6.52s6.52,2.92,6.52,6.52v11.41c0,3.6-2.92,6.52-6.52,6.52s-6.52-2.92-6.52-6.52v-11.41ZM79.38,59.5c0-3.6,2.92-6.52,6.52-6.52s6.52,2.92,6.52,6.52v11.41c0,3.6-2.92,6.52-6.52,6.52s-6.52-2.92-6.52-6.52v-11.41Z"/>
    <text class="cls-1" transform="translate(0 139.4)"><tspan x="0" y="0">VR </tspan><tspan class="cls-5" x="43.5" y="0">M</tspan><tspan class="cls-2" x="69.3" y="0">o</tspan><tspan class="cls-3" x="86.57" y="0">v</tspan><tspan x="102.22" y="0">er</tspan></text>
  </g>
</svg>