<svg width="269" height="228" xmlns="http://www.w3.org/2000/svg" xmlns:xlink="http://www.w3.org/1999/xlink" xml:space="preserve" overflow="hidden"><defs><clipPath id="clip0"><rect x="404" y="268" width="269" height="228"/></clipPath><clipPath id="clip1"><rect x="404" y="268" width="269" height="228"/></clipPath><clipPath id="clip2"><rect x="405" y="269" width="268" height="227"/></clipPath><clipPath id="clip3"><rect x="405" y="269" width="268" height="227"/></clipPath><clipPath id="clip4"><rect x="405" y="269" width="268" height="306"/></clipPath></defs><g clip-path="url(#clip0)" transform="translate(-404 -268)"><g clip-path="url(#clip1)"><g clip-path="url(#clip2)"><g clip-path="url(#clip3)"><g clip-path="url(#clip4)"><path d="M118.27 25.2126C118.27 16.8634 125.053 10.0809 133.402 10.0809 141.751 10.0809 148.534 16.8634 148.534 25.2126 148.534 33.5618 141.751 40.3443 133.402 40.3443 125.053 40.3443 118.27 33.5618 118.27 25.2126ZM158.594 25.2126C158.594 37.4169 149.936 47.5803 138.432 49.9098L138.432 60.4855 197.248 60.4855C223.594 60.4855 245.055 81.3895 245.962 107.53L247.673 107.53C257.878 107.53 266.165 115.797 266.165 126.022L266.165 162.985C266.165 173.19 257.898 181.477 247.673 181.477L245.735 181.477C243.22 206.03 222.481 225.161 197.269 225.161L69.5563 225.161C44.3437 225.161 23.6046 206.03 21.0895 181.477L19.1517 181.477C8.94708 181.477 0.659692 173.21 0.659692 162.985L0.659692 126.022C0.659692 115.817 8.92646 107.53 19.1517 107.53L20.8628 107.53C21.7492 81.3895 43.2305 60.4855 69.5769 60.4855L128.393 60.4855 128.393 49.9098C116.889 47.5803 108.231 37.3963 108.231 25.2126 108.231 11.2972 119.528 7.32406e-15 133.443 7.32406e-15 147.359 7.32406e-15 158.656 11.2972 158.656 25.2126ZM69.5357 70.5871 197.248 70.5871C218.585 70.5871 235.902 87.8834 235.902 109.241L235.902 176.468C235.902 197.805 218.606 215.122 197.248 215.122L69.5357 215.122C48.1988 215.122 30.8818 197.825 30.8818 176.468L30.8818 109.241C30.8818 87.904 48.1782 70.5871 69.5357 70.5871ZM19.1311 117.631 20.8215 117.631 20.8215 171.396 19.1311 171.396C14.4926 171.396 10.72 167.624 10.72 162.985L10.72 126.022C10.72 121.383 14.4926 117.611 19.1311 117.611ZM247.673 171.396 245.983 171.396 245.983 117.631 247.673 117.631C252.312 117.631 256.084 121.404 256.084 126.042L256.084 163.006C256.084 167.644 252.312 171.417 247.673 171.417ZM76.2563 122.662C76.2563 115.24 82.276 109.22 89.6975 109.22 97.1191 109.22 103.139 115.24 103.139 122.662L103.139 146.184C103.139 153.605 97.1191 159.625 89.6975 159.625 82.276 159.625 76.2563 153.605 76.2563 146.184L76.2563 122.662ZM163.645 122.662C163.645 115.24 169.665 109.22 177.086 109.22 184.508 109.22 190.527 115.24 190.527 122.662L190.527 146.184C190.527 153.605 184.508 159.625 177.086 159.625 169.665 159.625 163.645 153.605 163.645 146.184L163.645 122.662Z" fill="#010101" fill-rule="evenodd" fill-opacity="1" transform="matrix(1 0 0 1.00684 405.175 269)"/><text fill="#231F20" fill-opacity="1" font-family="Arial,Arial_MSFontService,sans-serif" font-style="normal" font-variant="normal" font-weight="700" font-stretch="normal" font-size="30.4" text-anchor="start" direction="ltr" writing-mode="lr-tb" unicode-bidi="normal" text-decoration="none" transform="matrix(2.06154 0 0 2.07565 405.175 558)">VR </text><text fill="#231F20" fill-opacity="1" font-family="Arial,Arial_MSFontService,sans-serif" font-style="normal" font-variant="normal" font-weight="700" font-stretch="normal" font-size="30.4" text-anchor="start" direction="ltr" writing-mode="lr-tb" unicode-bidi="normal" text-decoration="none" transform="matrix(2.06154 0 0 2.07565 494.852 558)">M</text><text fill="#231F20" fill-opacity="1" font-family="Arial,Arial_MSFontService,sans-serif" font-style="normal" font-variant="normal" font-weight="700" font-stretch="normal" font-size="30.4" text-anchor="start" direction="ltr" writing-mode="lr-tb" unicode-bidi="normal" text-decoration="none" transform="matrix(2.06154 0 0 2.07565 548.04 558)">o</text><text fill="#231F20" fill-opacity="1" font-family="Arial,Arial_MSFontService,sans-serif" font-style="normal" font-variant="normal" font-weight="700" font-stretch="normal" font-size="30.4" text-anchor="start" direction="ltr" writing-mode="lr-tb" unicode-bidi="normal" text-decoration="none" transform="matrix(2.06154 0 0 2.07565 583.643 558)">v</text><text fill="#231F20" fill-opacity="1" font-family="Arial,Arial_MSFontService,sans-serif" font-style="normal" font-variant="normal" font-weight="700" font-stretch="normal" font-size="30.4" text-anchor="start" direction="ltr" writing-mode="lr-tb" unicode-bidi="normal" text-decoration="none" transform="matrix(2.06154 0 0 2.07565 615.906 558)">er</text></g></g></g></g></g></svg>